<svg width="10" height="6" viewBox="0 0 10 6" fill="none" xmlns="http://www.w3.org/2000/svg">
<path d="M10 0.666667C10 0.486111 9.93815 0.329861 9.81445 0.197916C9.69076 0.065972 9.54427 -1.78814e-07 9.375 -1.78814e-07H0.625C0.455729 -1.78814e-07 0.309245 0.065972 0.185547 0.197916C0.061849 0.329861 0 0.486111 0 0.666667C0 0.847222 0.061849 1.00347 0.185547 1.13542L4.56055 5.80208C4.68424 5.93403 4.83073 6 5 6C5.16927 6 5.31576 5.93403 5.43945 5.80208L9.81445 1.13542C9.93815 1.00347 10 0.847222 10 0.666667Z" fill="#2C2C2C"/>
</svg>
